<svg xmlns="http://www.w3.org/2000/svg" width="781.034" height="168" viewBox="0 0 781.034 168">
  <g id="Groupe_31" data-name="Groupe 31" transform="translate(-264 194.999)">
    <g id="Groupe_7" data-name="Groupe 7" transform="translate(474.106 -168.785)">
      <path id="Tracé_2" data-name="Tracé 2" d="M291.3,137.762H272.761V46.109H238.537V29.763H325.52V46.109H291.3Z" transform="translate(-238.537 -29.762)" fill="#191919"/>
      <path id="Tracé_3" data-name="Tracé 3" d="M399.318,137.762V96.022q0-10-3.794-15.142t-12.77-5.145q-8.9,0-12.734,5.145t-3.83,15.142v41.74H348.675v-108h16.784V70.627a37.966,37.966,0,0,1,9.048-7.334,24.258,24.258,0,0,1,12.551-3.1q14.668,0,22.22,9.158t7.553,26.672v41.74Z" transform="translate(-251.664 -29.762)" fill="#191919"/>
      <path id="Tracé_4" data-name="Tracé 4" d="M496.052,116.412l14.887,7.3a32.076,32.076,0,0,1-14.011,14.813,42.808,42.808,0,0,1-20.651,5.036,36.37,36.37,0,0,1-32.729-19.192,41.766,41.766,0,0,1-4.925-20.432A41.511,41.511,0,0,1,443.586,83.5a37.163,37.163,0,0,1,65.345,0,41.771,41.771,0,0,1,4.926,20.432q0,1.752-.146,3.467t-.366,3.32H455.918a23.074,23.074,0,0,0,7.114,12.515,19.183,19.183,0,0,0,13.245,4.78,24.365,24.365,0,0,0,12.441-3.028,16.442,16.442,0,0,0,7.334-8.575M476.277,79.853a19.433,19.433,0,0,0-13.1,4.6,22.455,22.455,0,0,0-7.188,12.186h40.281a22.365,22.365,0,0,0-7.006-12.186,19.019,19.019,0,0,0-12.988-4.6" transform="translate(-262.385 -33.88)" fill="#191919"/>
      <path id="Tracé_5" data-name="Tracé 5" d="M584.09,83.794q-4.526-3.941-12.4-3.941-8.9,0-12.734,5.145t-3.831,15.141V141.88H537.607V65.988h16.638v8.757a35.913,35.913,0,0,1,9.086-7.334,24.855,24.855,0,0,1,12.66-3.1,33.96,33.96,0,0,1,13.062,2.408Z" transform="translate(-274.183 -33.88)" fill="#191919"/>
      <path id="Tracé_6" data-name="Tracé 6" d="M631.949,143.518q-9.925,0-16.894-3.539a25.664,25.664,0,0,1-10.616-9.522,25.005,25.005,0,0,1-3.649-13.282A21.264,21.264,0,0,1,605.241,104a30.322,30.322,0,0,1,12.186-9.3,43.17,43.17,0,0,1,17.659-3.429,33.432,33.432,0,0,1,9.231,1.2,25.489,25.489,0,0,1,7.48,3.467V94.7q0-15.177-16.784-15.178A40.211,40.211,0,0,0,622.681,81.2a53.2,53.2,0,0,0-10.8,5.035l-7.954-13.426a73.251,73.251,0,0,1,14.485-6.6,55.139,55.139,0,0,1,16.674-2.226,48.429,48.429,0,0,1,17.331,2.955A24.736,24.736,0,0,1,664.749,77.04q4.559,7.153,4.56,19.922v24.664a7.62,7.62,0,0,0,1.752,5.254,6.668,6.668,0,0,0,5.254,1.969L672.3,143.518a26.217,26.217,0,0,1-10.471-2.883,20.113,20.113,0,0,1-6.823-5.8,28.9,28.9,0,0,1-9.852,6.348,35.31,35.31,0,0,1-13.208,2.336M651.8,116.883a9.374,9.374,0,0,0-4.159-8.064q-4.158-2.954-12.552-2.955T622.5,108.819a9.881,9.881,0,0,0,0,16.164q4.2,2.993,12.587,2.991,7.3,0,12-2.991a9.184,9.184,0,0,0,4.706-8.1" transform="translate(-281.713 -33.84)" fill="#191919"/>
      <path id="Tracé_7" data-name="Tracé 7" d="M725.618,122.729l4.451,14.521a24.91,24.91,0,0,1-3.5,1.423,15.629,15.629,0,0,1-5.036.766,31.182,31.182,0,0,1-11.712-2.153,18.324,18.324,0,0,1-8.574-6.932q-3.212-4.779-3.21-12.589v-88h17.513v88q0,6.13,5.983,6.13a7.517,7.517,0,0,0,2.152-.364,8.784,8.784,0,0,0,1.935-.8" transform="translate(-293.304 -29.762)" fill="#191919"/>
      <path id="Tracé_8" data-name="Tracé 8" d="M770,158.38q-3.138,8.828-9.56,13.172t-17.294,4.342a35.642,35.642,0,0,1-8.026-.876,43.458,43.458,0,0,1-6.5-1.97l4.525-15.762a12.221,12.221,0,0,0,4.45,2.19,19.3,19.3,0,0,0,5.546.876q8.246,0,10.435-7.151l3.868-11.092L730.811,66.216h18.535l17.295,55.167,16.93-55.167h18.535l-26.416,75.891Z" transform="translate(-296.949 -34.107)" fill="#191919"/>
      <path id="Tracé_9" data-name="Tracé 9" d="M846.544,64.31q13.136,0,20.506,5.619a25.75,25.75,0,0,1,9.632,13.792l-16.127,6.5a14.4,14.4,0,0,0-4.233-7.48q-3.138-2.882-9.778-2.883-6.058,0-8.829,2.19a6.706,6.706,0,0,0-2.774,5.472,6.267,6.267,0,0,0,2.591,5.254q2.588,1.971,9.012,3.43a121.826,121.826,0,0,1,16.382,4.707,27.667,27.667,0,0,1,11.166,7.187q4.049,4.525,4.049,12.186a19.856,19.856,0,0,1-4.159,12.843,25.265,25.265,0,0,1-11.311,7.808,46.516,46.516,0,0,1-16.127,2.627q-12.771,0-21.125-5.947t-10.69-14.485l16.2-6.5a15.473,15.473,0,0,0,4.852,8.027q3.685,3.285,10.764,3.285,14.083,0,14.084-7.663a6.056,6.056,0,0,0-3.831-5.728,48.782,48.782,0,0,0-10.253-3.32q-13.646-2.991-21.381-8.355t-7.734-15.361a20.47,20.47,0,0,1,3.648-11.967,24.441,24.441,0,0,1,10.18-8.246,36.4,36.4,0,0,1,15.287-2.992" transform="translate(-307.213 -33.88)" fill="#191919"/>
    </g>
    <path id="Tracé_1" data-name="Tracé 1" d="M34.725,104.978A79.736,79.736,0,0,1,91.269,81.562v79.96H11.309a79.738,79.738,0,0,1,23.416-56.544M149.066,1.446H113.745a22.319,22.319,0,0,0-22.32,22.319V81.406h57.641a22.319,22.319,0,0,0,22.319-22.32V23.764A22.319,22.319,0,0,0,149.066,1.446M82.716,41.358A41.358,41.358,0,1,0,41.359,82.715,41.357,41.357,0,0,0,82.716,41.358" transform="translate(264 -195)" fill="#fc6d43"/>
  </g>
</svg>
